<?xml version="1.0" standalone="no"?>
<!DOCTYPE svg PUBLIC "-//W3C//DTD SVG 20010904//EN"
 "http://www.w3.org/TR/2001/REC-SVG-20010904/DTD/svg10.dtd">
<svg version="1.0" xmlns="http://www.w3.org/2000/svg"
 width="512.000000pt" height="512.000000pt" viewBox="0 0 512.000000 512.000000"
 preserveAspectRatio="xMidYMid meet">

<g transform="translate(0.000000,512.000000) scale(0.100000,-0.100000)"
fill="#000000" stroke="none">
<path d="M1835 3430 c-171 -27 -300 -112 -362 -238 -25 -51 -28 -68 -28 -157
0 -92 2 -104 30 -154 34 -61 98 -117 180 -156 31 -14 153 -54 273 -88 299 -86
352 -120 352 -231 0 -69 -31 -128 -86 -165 -114 -75 -355 -78 -572 -5 -57 19
-115 34 -128 34 -63 0 -90 -91 -40 -136 27 -24 147 -65 261 -89 111 -24 329
-25 412 -2 144 39 252 119 301 225 35 77 37 202 3 277 -56 127 -157 186 -434
255 -201 50 -270 77 -321 121 -52 46 -70 94 -60 159 28 173 315 247 621 160
92 -27 117 -26 142 6 23 29 27 64 11 94 -32 60 -384 116 -555 90z"/>
<path d="M2795 3419 c-46 -26 -45 -8 -45 -685 0 -353 3 -650 6 -659 8 -19 55
-45 83 -45 11 0 33 12 50 26 l31 26 0 202 0 201 116 115 116 115 26 -34 c264
-337 507 -634 526 -642 52 -24 116 17 116 75 0 29 -37 79 -270 371 -148 186
-270 340 -270 343 0 4 106 113 235 242 229 230 235 237 235 276 0 61 -60 101
-109 74 -12 -6 -179 -169 -371 -363 l-349 -352 -1 332 c0 330 0 332 -22 357
-26 30 -74 41 -103 25z"/>
</g>
</svg>
