<?xml version="1.0" standalone="no"?>
<!DOCTYPE svg PUBLIC "-//W3C//DTD SVG 20010904//EN"
 "http://www.w3.org/TR/2001/REC-SVG-20010904/DTD/svg10.dtd">
<svg version="1.0" xmlns="http://www.w3.org/2000/svg"
 width="260.000000pt" height="260.000000pt" viewBox="0 0 260.000000 260.000000"
 preserveAspectRatio="xMidYMid meet">
<metadata>
Created by potrace 1.14, written by Peter Selinger 2001-2017
</metadata>
<g transform="translate(0.000000,260.000000) scale(0.100000,-0.100000)"
fill="#000000" stroke="none">
<path d="M585 1860 c-162 -36 -257 -117 -291 -250 -35 -138 29 -261 170 -326
28 -13 125 -44 216 -70 248 -70 285 -95 284 -190 0 -60 -19 -94 -73 -131 -82
-56 -291 -57 -450 -4 -52 18 -104 31 -114 29 -11 -2 -29 -15 -40 -30 -20 -26
-20 -30 -5 -62 15 -30 27 -37 97 -61 172 -57 333 -69 467 -35 168 43 264 152
264 298 0 78 -17 126 -64 179 -53 61 -140 100 -326 148 -230 59 -297 108 -287
208 5 62 30 94 98 132 50 28 63 30 174 33 102 3 134 0 211 -21 102 -26 126
-23 141 20 13 35 1 68 -29 84 -77 41 -345 71 -443 49z"/>
<path d="M1470 1840 c-19 -19 -20 -33 -20 -550 0 -517 1 -531 20 -550 26 -26
60 -25 94 1 l26 20 0 167 0 167 93 93 93 93 190 -243 c237 -305 249 -318 283
-318 34 0 71 37 71 71 0 17 -69 111 -220 303 -121 153 -220 281 -220 285 0 3
86 92 190 196 165 165 190 194 190 221 0 38 -27 64 -66 64 -25 0 -69 -41 -316
-292 l-287 -293 -1 273 c0 258 -1 273 -20 292 -11 11 -33 20 -50 20 -17 0 -39
-9 -50 -20z"/>
</g>
</svg>
